<svg width="387" height="387" viewBox="0 0 387 387" fill="none" xmlns="http://www.w3.org/2000/svg">
<path fill-rule="evenodd" clip-rule="evenodd" d="M54.4219 371.883V382C54.4219 384.761 56.6605 387 59.4219 387H382C384.761 387 387 384.761 387 382V59.4219C387 56.6605 384.761 54.4219 382 54.4219H371.883V371.883H54.4219Z" fill="#7D83FF" fill-opacity="0.7"/>
<path fill-rule="evenodd" clip-rule="evenodd" d="M27.2109 344.672L27.2109 354.789C27.2109 357.55 29.4495 359.789 32.2109 359.789H354.789C357.55 359.789 359.789 357.55 359.789 354.789V32.2109C359.789 29.4495 357.55 27.2109 354.789 27.2109H344.672V344.672H27.2109Z" fill="#7D83FF" fill-opacity="0.7"/>
<rect width="332" height="332" rx="5" fill="#7D83FF" fill-opacity="0.7"/>
<path d="M216.515 180.131C197.077 180.131 181.398 195.699 181.398 215C181.398 234.301 197.077 249.869 216.515 249.869C235.954 249.869 251.633 234.301 251.633 215C251.633 195.699 235.954 180.131 216.515 180.131ZM216.515 237.669C203.954 237.669 193.684 227.503 193.684 215C193.684 202.497 203.923 192.331 216.515 192.331C229.107 192.331 239.346 202.497 239.346 215C239.346 227.503 229.077 237.669 216.515 237.669ZM261.26 178.705C261.26 183.227 257.592 186.838 253.069 186.838C248.515 186.838 244.878 183.196 244.878 178.705C244.878 174.214 248.546 170.572 253.069 170.572C257.592 170.572 261.26 174.214 261.26 178.705ZM284.519 186.959C283.999 176.065 281.493 166.414 273.455 158.464C265.447 150.513 255.728 148.024 244.756 147.478C233.447 146.841 199.553 146.841 188.244 147.478C177.303 147.994 167.583 150.482 159.545 158.433C151.507 166.384 149.032 176.034 148.481 186.929C147.84 198.157 147.84 231.812 148.481 243.041C149.001 253.935 151.507 263.586 159.545 271.536C167.583 279.487 177.272 281.976 188.244 282.522C199.553 283.159 233.447 283.159 244.756 282.522C255.728 282.006 265.447 279.518 273.455 271.536C281.462 263.586 283.968 253.935 284.519 243.041C285.16 231.812 285.16 198.188 284.519 186.959ZM269.909 255.088C267.525 261.036 262.91 265.619 256.889 268.016C247.873 271.567 226.479 270.747 216.515 270.747C206.552 270.747 185.127 271.536 176.141 268.016C170.151 265.649 165.536 261.067 163.121 255.088C159.545 246.136 160.37 224.893 160.37 215C160.37 205.107 159.576 183.834 163.121 174.912C165.505 168.964 170.12 164.381 176.141 161.984C185.157 158.433 206.552 159.253 216.515 159.253C226.479 159.253 247.904 158.464 256.889 161.984C262.88 164.351 267.495 168.933 269.909 174.912C273.485 183.864 272.66 205.107 272.66 215C272.66 224.893 273.485 246.166 269.909 255.088Z" fill="#1E255C" fill-opacity="0.7"/>
<path d="M203 125.469C203 82.6734 168.312 48 125.5 48C82.6875 48 48 82.6734 48 125.469C48 164.134 76.3406 196.184 113.391 202V147.863H93.7031V125.469H113.391V108.4C113.391 88.9865 124.953 78.2627 142.663 78.2627C151.144 78.2627 160.012 79.7746 160.012 79.7746V98.8294H150.238C140.613 98.8294 137.609 104.802 137.609 110.928V125.469H159.103L155.666 147.863H137.609V202C174.659 196.184 203 164.134 203 125.469Z" fill="#1E255C" fill-opacity="0.7"/>
</svg>
