<svg width="200" height="200" viewBox="0 0 200 200" fill="none" xmlns="http://www.w3.org/2000/svg">
<path fill-rule="evenodd" clip-rule="evenodd" d="M28.125 192.188V195C28.125 197.761 30.3636 200 33.125 200H195C197.761 200 200 197.761 200 195V33.125C200 30.3636 197.761 28.125 195 28.125H192.188V192.188H28.125Z" fill="#7D83FF"/>
<path fill-rule="evenodd" clip-rule="evenodd" d="M14.0625 178.125V180.938C14.0625 183.699 16.3011 185.938 19.0625 185.938H180.938C183.699 185.938 185.938 183.699 185.938 180.938V19.0625C185.938 16.3011 183.699 14.0625 180.938 14.0625H178.125V178.125H14.0625Z" fill="#7D83FF"/>
<rect width="171.613" height="171.613" rx="5" fill="#7D83FF"/>
<path fill-rule="evenodd" clip-rule="evenodd" d="M105.339 125.096C110.61 125.096 114.883 120.777 114.883 115.45C114.883 110.123 110.61 105.804 105.339 105.804C100.068 105.804 95.7953 110.123 95.7953 115.45C95.7953 120.777 100.068 125.096 105.339 125.096ZM105.339 135.484C116.287 135.484 125.161 126.514 125.161 115.45C125.161 104.386 116.287 95.4166 105.339 95.4166C94.3919 95.4166 85.5172 104.386 85.5172 115.45C85.5172 126.514 94.3919 135.484 105.339 135.484Z" fill="#1E255C"/>
<path fill-rule="evenodd" clip-rule="evenodd" d="M120.022 120.644C117.184 120.644 114.883 118.319 114.883 115.45V56.0914C114.883 53.2229 117.184 50.8975 120.022 50.8975C122.86 50.8975 125.161 53.2229 125.161 56.0914V115.45C125.161 118.319 122.86 120.644 120.022 120.644Z" fill="#1E255C"/>
<path fill-rule="evenodd" clip-rule="evenodd" d="M59.822 111.74C65.093 111.74 69.366 107.422 69.366 102.094C69.366 96.7672 65.093 92.4487 59.822 92.4487C54.5511 92.4487 50.2781 96.7672 50.2781 102.094C50.2781 107.422 54.5511 111.74 59.822 111.74ZM59.822 122.128C70.7694 122.128 79.6441 113.159 79.6441 102.094C79.6441 91.0302 70.7694 82.0609 59.822 82.0609C48.8746 82.0609 40 91.0302 40 102.094C40 113.159 48.8746 122.128 59.822 122.128Z" fill="#1E255C"/>
<path fill-rule="evenodd" clip-rule="evenodd" d="M74.505 107.288C71.6668 107.288 69.366 104.963 69.366 102.094V42.7356C69.366 39.8671 71.6668 37.5417 74.505 37.5417C77.3432 37.5417 79.6441 39.8671 79.6441 42.7356V102.094C79.6441 104.963 77.3432 107.288 74.505 107.288Z" fill="#1E255C"/>
<path fill-rule="evenodd" clip-rule="evenodd" d="M70.3307 41.344C70.8634 38.5265 73.5165 36.8491 76.2564 37.5976L120.661 49.727C123.401 50.4754 125.19 53.3662 124.658 56.1837C124.125 59.0012 121.472 60.6786 118.732 59.9301L74.327 47.8007C71.5871 47.0523 69.7979 44.1615 70.3307 41.344Z" fill="#1E255C"/>
<path fill-rule="evenodd" clip-rule="evenodd" d="M70.3307 57.6677C70.8634 54.8502 73.5165 53.1728 76.2564 53.9212L120.661 66.0507C123.401 66.7991 125.19 69.6899 124.658 72.5074C124.125 75.3249 121.472 77.0023 118.732 76.2538L74.327 64.1244C71.5871 63.376 69.7979 60.4852 70.3307 57.6677Z" fill="#1E255C"/>
</svg>
