<svg width="387" height="49" viewBox="0 0 387 49" fill="none" xmlns="http://www.w3.org/2000/svg">
<path d="M69.4348 13.4954H78.3678C81.6788 13.4954 84.1276 14.2127 85.7142 15.6473C87.3237 17.0819 88.1285 19.0719 88.1285 21.6172C88.1285 24.1393 87.3237 26.1293 85.7142 27.587C84.1276 29.0448 81.6788 29.7736 78.3678 29.7736H76.1259V37.7912H69.4348V13.4954ZM78.3678 18.9446H76.1259V24.3244H78.3678C79.4485 24.3244 80.2647 24.093 80.8166 23.6302C81.3914 23.1443 81.6788 22.4733 81.6788 21.6172C81.6788 19.8355 80.5751 18.9446 78.3678 18.9446Z" fill="#1E255C"/>
<path d="M98.6914 38.1383C95.7252 38.1383 93.4029 37.3979 91.7244 35.917C90.0458 34.413 89.2066 32.3767 89.2066 29.8083C89.2066 27.1936 90.0228 25.1574 91.6554 23.6997C93.3109 22.2188 95.5873 21.4783 98.4844 21.4783C101.359 21.4783 103.554 22.1725 105.072 23.5608C106.59 24.9492 107.348 26.9391 107.348 29.5307C107.348 29.8083 107.348 30.086 107.348 30.3637C107.371 30.6182 107.36 30.8496 107.314 31.0578H95.3113C95.6103 33.0015 96.668 33.9733 98.4844 33.9733C100.186 33.9733 101.382 33.3717 102.071 32.1685L107.521 33.2097C105.796 36.4955 102.853 38.1383 98.6914 38.1383ZM98.3465 25.2963C96.7139 25.2963 95.7252 26.1871 95.3803 27.9688H100.968C100.899 27.1358 100.634 26.4879 100.174 26.0251C99.7146 25.5392 99.1053 25.2963 98.3465 25.2963Z" fill="#1E255C"/>
<path d="M120.759 28.0035C120.529 27.7258 120.253 27.4944 119.931 27.3093C119.609 27.1242 119.218 27.0317 118.758 27.0317C118.069 27.0317 117.471 27.3209 116.965 27.8994C116.482 28.4547 116.241 29.3108 116.241 30.4678V37.7912H110.377V21.8254H116.241V23.8732C116.747 23.1096 117.367 22.508 118.103 22.0684C118.862 21.6287 119.644 21.4089 120.448 21.4089C121.023 21.4089 121.575 21.5478 122.104 21.8254C122.656 22.0799 123.047 22.4039 123.277 22.7973L120.759 28.0035Z" fill="#1E255C"/>
<path d="M126.196 31.7173C127.622 32.828 128.794 33.5337 129.714 33.8345C130.634 34.1353 131.3 34.2857 131.714 34.2857C132.565 34.2857 132.991 33.9502 132.991 33.2792C132.991 33.0015 132.899 32.7701 132.715 32.585C132.554 32.3768 132.232 32.1685 131.749 31.9603C131.289 31.752 130.599 31.4975 129.679 31.1967C128.921 30.9421 128.196 30.6182 127.507 30.2248C126.84 29.8315 126.288 29.3108 125.851 28.663C125.414 27.9919 125.196 27.1358 125.196 26.0945C125.196 24.6137 125.771 23.4798 126.92 22.6931C128.093 21.8833 129.587 21.4783 131.404 21.4783C132.807 21.4783 134.083 21.6866 135.232 22.1031C136.382 22.5196 137.474 23.0286 138.509 23.6302L136.75 27.6564C136.037 27.0085 135.209 26.4763 134.267 26.0598C133.347 25.6433 132.554 25.4351 131.887 25.4351C131.45 25.4351 131.14 25.5161 130.956 25.678C130.772 25.84 130.68 26.0367 130.68 26.2681C130.68 26.7771 130.99 27.1358 131.611 27.344C132.232 27.5523 133.174 27.8994 134.439 28.3853C135.221 28.6861 135.945 29.0216 136.612 29.3918C137.302 29.7621 137.854 30.2595 138.268 30.8843C138.704 31.4859 138.923 32.2842 138.923 33.2792C138.923 35.084 138.394 36.4145 137.336 37.2706C136.279 38.1268 134.761 38.5548 132.784 38.5548C131.036 38.5548 129.45 38.3003 128.024 37.7912C126.621 37.3053 125.288 36.6574 124.023 35.8476L126.196 31.7173Z" fill="#1E255C"/>
<path d="M140.74 29.8083C140.74 28.0961 141.142 26.6152 141.947 25.3657C142.752 24.1162 143.855 23.1559 145.258 22.4849C146.684 21.7907 148.293 21.4436 150.087 21.4436C151.88 21.4436 153.478 21.7907 154.881 22.4849C156.283 23.1559 157.387 24.1162 158.192 25.3657C158.997 26.6152 159.399 28.0961 159.399 29.8083C159.399 31.4975 158.997 32.9668 158.192 34.2163C157.387 35.4658 156.283 36.4376 154.881 37.1318C153.478 37.8028 151.88 38.1383 150.087 38.1383C148.293 38.1383 146.684 37.8028 145.258 37.1318C143.855 36.4376 142.752 35.4658 141.947 34.2163C141.142 32.9668 140.74 31.4975 140.74 29.8083ZM146.913 29.8083C146.913 30.919 147.224 31.7751 147.845 32.3767C148.489 32.9784 149.236 33.2792 150.087 33.2792C150.96 33.2792 151.708 32.9784 152.328 32.3767C152.949 31.7751 153.26 30.919 153.26 29.8083C153.26 28.6977 152.949 27.8415 152.328 27.2399C151.708 26.6152 150.96 26.3028 150.087 26.3028C149.236 26.3028 148.489 26.6152 147.845 27.2399C147.224 27.8415 146.913 28.6977 146.913 29.8083Z" fill="#1E255C"/>
<path d="M172.628 28.0729C172.628 27.2399 172.479 26.6036 172.18 26.164C171.904 25.7012 171.386 25.4698 170.628 25.4698C169.915 25.4698 169.34 25.6896 168.903 26.1292C168.489 26.5457 168.282 27.1936 168.282 28.0729V37.7912H162.281V21.8254H168.282V24.1856C168.742 23.3526 169.363 22.6931 170.145 22.2072C170.95 21.6982 171.95 21.4436 173.145 21.4436C175.215 21.4436 176.686 21.9642 177.56 23.0055C178.457 24.0467 178.905 25.5276 178.905 27.4482V37.7912H172.628V28.0729Z" fill="#1E255C"/>
<path d="M184.625 27.1011L182.728 23.1443C183.74 22.7047 184.901 22.2998 186.212 21.9295C187.545 21.5362 188.971 21.3395 190.489 21.3395C191.937 21.3395 193.236 21.5477 194.386 21.9642C195.559 22.3807 196.478 22.9824 197.145 23.7691C197.812 24.5327 198.145 25.4814 198.145 26.6152V37.7912H192.489V35.5699C192.029 36.4029 191.328 37.0392 190.385 37.4789C189.442 37.9185 188.396 38.1383 187.247 38.1383C186.212 38.1383 185.258 37.9532 184.384 37.583C183.533 37.1896 182.843 36.6227 182.314 35.8823C181.786 35.1187 181.521 34.1932 181.521 33.1056C181.521 31.5785 182.05 30.3752 183.108 29.496C184.188 28.6167 185.729 28.177 187.729 28.177C188.672 28.177 189.557 28.2696 190.385 28.4547C191.213 28.6398 191.914 28.8828 192.489 29.1836V28.0382C192.489 27.344 192.259 26.8003 191.799 26.4069C191.362 25.9904 190.65 25.7822 189.661 25.7822C188.994 25.7822 188.304 25.8632 187.591 26.0251C186.902 26.1871 186.281 26.3722 185.729 26.5805C185.2 26.7887 184.832 26.9622 184.625 27.1011ZM187.522 32.7932C187.522 33.3254 187.718 33.7304 188.109 34.008C188.5 34.2857 188.948 34.4245 189.454 34.4245C190.144 34.4245 190.788 34.2163 191.385 33.7998C191.983 33.3602 192.34 32.7007 192.455 31.8214C191.627 31.4512 190.719 31.2661 189.73 31.2661C188.948 31.2661 188.385 31.4049 188.04 31.6826C187.695 31.9371 187.522 32.3073 187.522 32.7932Z" fill="#1E255C"/>
<path d="M201.79 10.7188H207.791V37.7912H201.79V10.7188Z" fill="#1E255C"/>
<path d="M225.555 13.4954H234.074C236.948 13.5186 239.121 14.2359 240.592 15.6473C242.064 17.0588 242.673 19.0488 242.42 21.6172C242.259 23.3526 241.696 24.8219 240.73 26.0251C239.788 27.2283 238.546 28.1539 237.005 28.8018C235.465 29.4265 233.706 29.7505 231.728 29.7736H229.383L228.003 37.7912H221.416L225.555 13.4954ZM233.453 18.9099H231.245L230.314 24.3244H232.28C233.246 24.3244 234.074 24.093 234.763 23.6302C235.476 23.1443 235.913 22.4733 236.074 21.6172C236.212 20.7842 236.04 20.1247 235.557 19.6388C235.074 19.1529 234.373 18.9099 233.453 18.9099Z" fill="#1E255C"/>
<path d="M253.784 27.9688C253.554 27.7143 253.289 27.4944 252.99 27.3093C252.715 27.1242 252.381 27.0317 251.99 27.0317C251.185 27.0085 250.473 27.3556 249.852 28.0729C249.231 28.7671 248.863 29.5769 248.748 30.5025V30.4678L247.472 37.7912H241.712L244.437 21.8254H250.231L249.817 24.1856C250.415 23.3757 251.105 22.7163 251.887 22.2072C252.692 21.675 253.496 21.4089 254.301 21.4089C254.899 21.4089 255.416 21.5593 255.853 21.8601C256.29 22.1378 256.658 22.4733 256.957 22.8667L253.784 27.9688Z" fill="#1E255C"/>
<path d="M256.584 29.8083C256.814 28.1423 257.401 26.6846 258.343 25.4351C259.309 24.1856 260.528 23.2137 261.999 22.5196C263.471 21.8254 265.069 21.4783 266.794 21.4783C268.472 21.4783 269.944 21.837 271.208 22.5543C272.496 23.2485 273.462 24.2203 274.105 25.4698C274.772 26.7193 275.002 28.1655 274.795 29.8083C274.588 31.4743 274.002 32.9321 273.036 34.1816C272.071 35.4311 270.852 36.4029 269.38 37.0971C267.909 37.7912 266.311 38.1383 264.586 38.1383C262.908 38.1383 261.425 37.7912 260.137 37.0971C258.872 36.3798 257.907 35.3964 257.24 34.1469C256.596 32.8974 256.378 31.4512 256.584 29.8083ZM262.62 29.8083C262.505 30.7339 262.655 31.5438 263.069 32.2379C263.505 32.9089 264.161 33.256 265.035 33.2792C265.931 33.3023 266.736 32.9784 267.449 32.3073C268.185 31.6132 268.622 30.7802 268.759 29.8083C268.874 28.8828 268.713 28.0845 268.277 27.4135C267.863 26.7193 267.219 26.3606 266.345 26.3375C265.448 26.3144 264.632 26.6499 263.896 27.344C263.184 28.0151 262.758 28.8365 262.62 29.8083Z" fill="#1E255C"/>
<path d="M301.938 27.4482V37.7912H295.937V28.0729C295.937 27.2399 295.811 26.6036 295.558 26.164C295.305 25.7012 294.868 25.4698 294.247 25.4698C293.695 25.4698 293.235 25.6896 292.868 26.1292C292.5 26.5457 292.316 27.1936 292.316 28.0729V37.7912H286.349V28.0729C286.349 27.2399 286.211 26.6036 285.935 26.164C285.682 25.7012 285.245 25.4698 284.624 25.4698C284.073 25.4698 283.613 25.6896 283.245 26.1292C282.877 26.5457 282.693 27.1936 282.693 28.0729V37.7912H276.968V21.8254H282.693V24.1856C283.153 23.3294 283.762 22.6584 284.521 22.1725C285.28 21.6866 286.222 21.4436 287.349 21.4436C288.637 21.4436 289.637 21.6634 290.35 22.1031C291.063 22.5196 291.568 23.1443 291.867 23.9773C292.465 23.1675 293.189 22.5427 294.04 22.1031C294.914 21.6634 295.891 21.4436 296.972 21.4436C298.88 21.4436 300.179 21.9642 300.869 23.0055C301.582 24.0467 301.938 25.5276 301.938 27.4482Z" fill="#1E255C"/>
<path d="M304.871 29.8083C304.871 28.0961 305.274 26.6152 306.078 25.3657C306.883 24.1162 307.987 23.1559 309.389 22.4849C310.815 21.7907 312.425 21.4436 314.218 21.4436C316.012 21.4436 317.61 21.7907 319.012 22.4849C320.415 23.1559 321.518 24.1162 322.323 25.3657C323.128 26.6152 323.53 28.0961 323.53 29.8083C323.53 31.4975 323.128 32.9668 322.323 34.2163C321.518 35.4658 320.415 36.4376 319.012 37.1318C317.61 37.8028 316.012 38.1383 314.218 38.1383C312.425 38.1383 310.815 37.8028 309.389 37.1318C307.987 36.4376 306.883 35.4658 306.078 34.2163C305.274 32.9668 304.871 31.4975 304.871 29.8083ZM311.045 29.8083C311.045 30.919 311.355 31.7751 311.976 32.3767C312.62 32.9784 313.367 33.2792 314.218 33.2792C315.092 33.2792 315.839 32.9784 316.46 32.3767C317.081 31.7751 317.391 30.919 317.391 29.8083C317.391 28.6977 317.081 27.8415 316.46 27.2399C315.839 26.6152 315.092 26.3028 314.218 26.3028C313.367 26.3028 312.62 26.6152 311.976 27.2399C311.355 27.8415 311.045 28.6977 311.045 29.8083Z" fill="#1E255C"/>
<path d="M324.722 21.8254H327.585V16.2721H333.311V21.8254H336.139V26.6846H333.311V37.7912H327.585V26.6846H324.722V21.8254Z" fill="#1E255C"/>
<path d="M337.754 16.0291C337.754 15.0804 338.087 14.3284 338.754 13.7731C339.421 13.1946 340.214 12.9054 341.134 12.9054C342.076 12.9054 342.87 13.1946 343.513 13.7731C344.18 14.3284 344.514 15.0804 344.514 16.0291C344.514 16.9547 344.18 17.7067 343.513 18.2852C342.87 18.8405 342.076 19.1182 341.134 19.1182C340.214 19.1182 339.421 18.8405 338.754 18.2852C338.087 17.7067 337.754 16.9547 337.754 16.0291ZM338.236 21.8254H344.031V37.7912H338.236V21.8254Z" fill="#1E255C"/>
<path d="M347.075 29.8083C347.075 28.0961 347.477 26.6152 348.282 25.3657C349.086 24.1162 350.19 23.1559 351.593 22.4849C353.018 21.7907 354.628 21.4436 356.421 21.4436C358.215 21.4436 359.813 21.7907 361.215 22.4849C362.618 23.1559 363.722 24.1162 364.527 25.3657C365.331 26.6152 365.734 28.0961 365.734 29.8083C365.734 31.4975 365.331 32.9668 364.527 34.2163C363.722 35.4658 362.618 36.4376 361.215 37.1318C359.813 37.8028 358.215 38.1383 356.421 38.1383C354.628 38.1383 353.018 37.8028 351.593 37.1318C350.19 36.4376 349.086 35.4658 348.282 34.2163C347.477 32.9668 347.075 31.4975 347.075 29.8083ZM353.248 29.8083C353.248 30.919 353.559 31.7751 354.18 32.3767C354.823 32.9784 355.571 33.2792 356.421 33.2792C357.295 33.2792 358.042 32.9784 358.663 32.3767C359.284 31.7751 359.594 30.919 359.594 29.8083C359.594 28.6977 359.284 27.8415 358.663 27.2399C358.042 26.6152 357.295 26.3028 356.421 26.3028C355.571 26.3028 354.823 26.6152 354.18 27.2399C353.559 27.8415 353.248 28.6977 353.248 29.8083Z" fill="#1E255C"/>
<path d="M378.963 28.0729C378.963 27.2399 378.813 26.6036 378.514 26.164C378.239 25.7012 377.721 25.4698 376.962 25.4698C376.25 25.4698 375.675 25.6896 375.238 26.1292C374.824 26.5457 374.617 27.1936 374.617 28.0729V37.7912H368.616V21.8254H374.617V24.1856C375.077 23.3526 375.698 22.6931 376.48 22.2072C377.284 21.6982 378.285 21.4436 379.48 21.4436C381.55 21.4436 383.021 21.9642 383.895 23.0055C384.792 24.0467 385.24 25.5276 385.24 27.4482V37.7912H378.963V28.0729Z" fill="#1E255C"/>
<path d="M225.555 13.4954H234.074C236.948 13.5186 239.121 14.2359 240.592 15.6473C242.064 17.0588 242.673 19.0488 242.42 21.6172C242.259 23.3526 241.696 24.8219 240.73 26.0251C239.787 27.2284 238.546 28.1539 237.005 28.8018C235.465 29.4266 233.706 29.7505 231.728 29.7736H229.383L228.003 37.7913H221.416L225.555 13.4954ZM233.453 18.9099H231.245L230.314 24.3244H232.28C233.246 24.3244 234.074 24.093 234.763 23.6303C235.476 23.1443 235.913 22.4733 236.074 21.6172C236.212 20.7842 236.04 20.1247 235.557 19.6388C235.074 19.1529 234.373 18.9099 233.453 18.9099Z" fill="#7D83FF"/>
<path d="M253.784 27.9688C253.554 27.7143 253.289 27.4945 252.99 27.3093C252.714 27.1242 252.381 27.0317 251.99 27.0317C251.185 27.0085 250.473 27.3556 249.852 28.0729C249.231 28.7671 248.863 29.577 248.748 30.5025V30.4678L247.472 37.7913H241.712L244.437 21.8254H250.231L249.817 24.1856C250.415 23.3757 251.105 22.7163 251.887 22.2072C252.691 21.675 253.496 21.4089 254.301 21.4089C254.899 21.4089 255.416 21.5593 255.853 21.8601C256.29 22.1378 256.658 22.4733 256.957 22.8667L253.784 27.9688Z" fill="#7D83FF"/>
<path d="M256.584 29.8083C256.814 28.1423 257.401 26.6846 258.343 25.4351C259.309 24.1856 260.528 23.2138 261.999 22.5196C263.471 21.8254 265.069 21.4783 266.793 21.4783C268.472 21.4783 269.944 21.837 271.208 22.5543C272.496 23.2485 273.462 24.2203 274.105 25.4698C274.772 26.7193 275.002 28.1655 274.795 29.8083C274.588 31.4743 274.002 32.9321 273.036 34.1816C272.07 35.4311 270.852 36.4029 269.38 37.0971C267.909 37.7913 266.311 38.1383 264.586 38.1383C262.908 38.1383 261.424 37.7913 260.137 37.0971C258.872 36.3798 257.906 35.3964 257.24 34.1469C256.596 32.8974 256.377 31.4512 256.584 29.8083ZM262.62 29.8083C262.505 30.7339 262.655 31.5438 263.069 32.2379C263.505 32.909 264.161 33.256 265.034 33.2792C265.931 33.3023 266.736 32.9784 267.449 32.3073C268.185 31.6132 268.621 30.7802 268.759 29.8083C268.874 28.8828 268.713 28.0845 268.277 27.4135C267.863 26.7193 267.219 26.3606 266.345 26.3375C265.448 26.3144 264.632 26.6499 263.896 27.344C263.183 28.0151 262.758 28.8365 262.62 29.8083Z" fill="#7D83FF"/>
<path fill-rule="evenodd" clip-rule="evenodd" d="M7.91296 47.0859C8.82836 48.2514 10.2504 49 11.8473 49H43.692C46.4534 49 48.692 46.7614 48.692 44V11.8906C48.692 10.2992 47.9485 8.88148 46.79 7.96576V47.0859H7.91296Z" fill="#7D83FF"/>
<path fill-rule="evenodd" clip-rule="evenodd" d="M4.48932 43.6406C5.40471 44.8061 6.82677 45.5547 8.42367 45.5547H40.2684C43.0298 45.5547 45.2684 43.3161 45.2684 40.5547V8.44532C45.2684 6.85392 44.5249 5.43616 43.3663 4.52045V43.6406H4.48932Z" fill="#7D83FF"/>
<path fill-rule="evenodd" clip-rule="evenodd" d="M5 0C2.23858 0 0 2.23857 0 5V36.9278C0 39.6893 2.23857 41.9278 5 41.9278H36.6643C39.4257 41.9278 41.6643 39.6893 41.6643 36.9278V5C41.6643 2.23858 39.4257 0 36.6643 0H5ZM16.3442 30.8144C19.5488 30.8144 22.1467 28.1897 22.1467 24.952V10.2389L24.8501 11.8157C25.5696 12.2355 26.4897 11.9864 26.9051 11.2594C27.3205 10.5325 27.074 9.60292 26.3544 9.18321L21.6015 6.41081C21.3412 6.19286 21.0069 6.06186 20.6424 6.06186C19.8115 6.06186 19.138 6.74234 19.138 7.58175V19.8126C18.3092 19.3517 17.357 19.0895 16.3442 19.0895C13.1395 19.0895 10.5416 21.7142 10.5416 24.952C10.5416 28.1897 13.1395 30.8144 16.3442 30.8144ZM16.3442 27.7746C17.8871 27.7746 19.138 26.5109 19.138 24.952C19.138 23.3931 17.8871 22.1293 16.3442 22.1293C14.8012 22.1293 13.5503 23.3931 13.5503 24.952C13.5503 26.5109 14.8012 27.7746 16.3442 27.7746Z" fill="#7D83FF"/>
<path fill-rule="evenodd" clip-rule="evenodd" d="M20.5721 32.7831C22.1311 32.7831 23.395 31.5583 23.395 30.0474C23.395 28.5366 22.1311 27.3118 20.5721 27.3118C19.013 27.3118 17.7491 28.5366 17.7491 30.0474C17.7491 31.5583 19.013 32.7831 20.5721 32.7831ZM20.5721 35.7292C23.8101 35.7292 26.4351 33.1854 26.4351 30.0474C26.4351 26.9095 23.8101 24.3657 20.5721 24.3657C17.334 24.3657 14.709 26.9095 14.709 30.0474C14.709 33.1854 17.334 35.7292 20.5721 35.7292Z" fill="#1E255C"/>
<path fill-rule="evenodd" clip-rule="evenodd" d="M24.9151 31.5205C24.0756 31.5205 23.395 30.861 23.395 30.0474V13.2126C23.395 12.3991 24.0756 11.7396 24.9151 11.7396C25.7546 11.7396 26.4351 12.3991 26.4351 13.2126V30.0474C26.4351 30.861 25.7546 31.5205 24.9151 31.5205Z" fill="#1E255C"/>
<path fill-rule="evenodd" clip-rule="evenodd" d="M23.7207 12.5682C24.1405 11.8637 25.0701 11.6223 25.7972 12.0291L30.6866 14.7647C31.4137 15.1715 31.6628 16.0724 31.243 16.7769C30.8233 17.4815 29.8936 17.7229 29.1666 17.3161L24.2771 14.5805C23.5501 14.1737 23.301 13.2728 23.7207 12.5682Z" fill="#1E255C"/>
</svg>
