<svg width="167" height="167" viewBox="0 0 167 167" fill="none" xmlns="http://www.w3.org/2000/svg">
<path fill-rule="evenodd" clip-rule="evenodd" d="M23.4844 160.477V162C23.4844 164.761 25.7229 167 28.4844 167H162C164.761 167 167 164.761 167 162V28.4844C167 25.723 164.761 23.4844 162 23.4844H160.477V160.477H23.4844Z" fill="#F391B3"/>
<path fill-rule="evenodd" clip-rule="evenodd" d="M11.7422 148.734V150.258C11.7422 153.019 13.9808 155.258 16.7422 155.258H150.258C153.019 155.258 155.258 153.019 155.258 150.258V16.7422C155.258 13.9808 153.019 11.7422 150.258 11.7422H148.734V148.734H11.7422Z" fill="#F391B3"/>
<path fill-rule="evenodd" clip-rule="evenodd" d="M5 0C2.23858 0 0 2.23858 0 5V138.297C0 141.058 2.23858 143.297 5 143.297H138.297C141.058 143.297 143.297 141.058 143.297 138.297V5C143.297 2.23858 141.058 0 138.297 0H5ZM66.5028 45.7969V41.1263L95.9275 49.1638V53.8344L66.5028 45.7969ZM66.5028 54.7566V85.2489C66.5028 94.4876 59.0925 101.977 49.9514 101.977C40.8103 101.977 33.4 94.4876 33.4 85.2489C33.4 76.0102 40.8103 68.5208 49.9514 68.5208C52.8405 68.5208 55.5566 69.2689 57.9206 70.5839V35.6842C57.9206 33.5634 59.4268 31.7982 61.417 31.4216C62.1154 31.2035 62.8905 31.1799 63.6741 31.394L100.752 41.522C102.316 41.9493 103.509 43.2127 103.966 44.7211C104.312 45.3468 104.51 46.0682 104.51 46.8363V96.4009C104.51 105.64 97.0994 113.129 87.9583 113.129C78.8172 113.129 71.4069 105.64 71.4069 96.4009C71.4069 87.1623 78.8172 79.6729 87.9583 79.6729C90.8474 79.6729 93.5635 80.421 95.9275 81.736V62.7941L66.5028 54.7566ZM57.9206 85.2489C57.9206 89.6971 54.3527 93.3031 49.9514 93.3031C45.5502 93.3031 41.9822 89.6971 41.9822 85.2489C41.9822 80.8007 45.5502 77.1946 49.9514 77.1946C54.3527 77.1946 57.9206 80.8007 57.9206 85.2489ZM95.9275 96.4009C95.9275 100.849 92.3596 104.455 87.9583 104.455C83.5571 104.455 79.9891 100.849 79.9891 96.4009C79.9891 91.9527 83.5571 88.3467 87.9583 88.3467C92.3596 88.3467 95.9275 91.9527 95.9275 96.4009Z" fill="#F391B3"/>
</svg>
