<svg width="763" height="96" viewBox="0 0 763 96" fill="none" xmlns="http://www.w3.org/2000/svg">
<path d="M136.896 26.44H154.508C161.036 26.44 165.864 27.8453 168.992 30.656C172.165 33.4667 173.752 37.3653 173.752 42.352C173.752 47.2933 172.165 51.192 168.992 54.048C165.864 56.904 161.036 58.332 154.508 58.332H150.088V74.04H136.896V26.44ZM154.508 37.116H150.088V47.656H154.508C156.639 47.656 158.248 47.2027 159.336 46.296C160.469 45.344 161.036 44.0293 161.036 42.352C161.036 38.8613 158.86 37.116 154.508 37.116Z" fill="#1E255C"/>
<path d="M194.578 74.72C188.73 74.72 184.151 73.2693 180.842 70.368C177.532 67.4213 175.878 63.432 175.878 58.4C175.878 53.2773 177.487 49.288 180.706 46.432C183.97 43.5307 188.458 42.08 194.17 42.08C199.836 42.08 204.166 43.44 207.158 46.16C210.15 48.88 211.646 52.7787 211.646 57.856C211.646 58.4 211.646 58.944 211.646 59.488C211.691 59.9867 211.668 60.44 211.578 60.848H187.914C188.503 64.656 190.588 66.56 194.17 66.56C197.524 66.56 199.882 65.3813 201.242 63.024L211.986 65.064C208.586 71.5013 202.783 74.72 194.578 74.72ZM193.898 49.56C190.679 49.56 188.73 51.3053 188.05 54.796H199.066C198.93 53.164 198.408 51.8947 197.502 50.988C196.595 50.036 195.394 49.56 193.898 49.56Z" fill="#1E255C"/>
<path d="M238.085 54.864C237.632 54.32 237.088 53.8667 236.453 53.504C235.819 53.1413 235.048 52.96 234.141 52.96C232.781 52.96 231.603 53.5267 230.605 54.66C229.653 55.748 229.177 57.4253 229.177 59.692V74.04H217.617V42.76H229.177V46.772C230.175 45.276 231.399 44.0973 232.849 43.236C234.345 42.3747 235.887 41.944 237.473 41.944C238.607 41.944 239.695 42.216 240.737 42.76C241.825 43.2587 242.596 43.8933 243.049 44.664L238.085 54.864Z" fill="#1E255C"/>
<path d="M248.805 62.14C251.616 64.316 253.928 65.6987 255.741 66.288C257.554 66.8773 258.869 67.172 259.685 67.172C261.362 67.172 262.201 66.5147 262.201 65.2C262.201 64.656 262.02 64.2027 261.657 63.84C261.34 63.432 260.705 63.024 259.753 62.616C258.846 62.208 257.486 61.7093 255.673 61.12C254.177 60.6213 252.749 59.9867 251.389 59.216C250.074 58.4453 248.986 57.4253 248.125 56.156C247.264 54.8413 246.833 53.164 246.833 51.124C246.833 48.2227 247.966 46.0013 250.233 44.46C252.545 42.8733 255.492 42.08 259.073 42.08C261.838 42.08 264.354 42.488 266.621 43.304C268.888 44.12 271.041 45.1173 273.081 46.296L269.613 54.184C268.208 52.9147 266.576 51.872 264.717 51.056C262.904 50.24 261.34 49.832 260.025 49.832C259.164 49.832 258.552 49.9907 258.189 50.308C257.826 50.6253 257.645 51.0107 257.645 51.464C257.645 52.4613 258.257 53.164 259.481 53.572C260.705 53.98 262.564 54.66 265.057 55.612C266.598 56.2013 268.026 56.8587 269.341 57.584C270.701 58.3093 271.789 59.284 272.605 60.508C273.466 61.6867 273.897 63.2507 273.897 65.2C273.897 68.736 272.854 71.3427 270.769 73.02C268.684 74.6973 265.692 75.536 261.793 75.536C258.348 75.536 255.22 75.0373 252.409 74.04C249.644 73.088 247.014 71.8187 244.521 70.232L248.805 62.14Z" fill="#1E255C"/>
<path d="M277.479 58.4C277.479 55.0453 278.272 52.144 279.859 49.696C281.446 47.248 283.622 45.3667 286.387 44.052C289.198 42.692 292.371 42.012 295.907 42.012C299.443 42.012 302.594 42.692 305.359 44.052C308.124 45.3667 310.3 47.248 311.887 49.696C313.474 52.144 314.267 55.0453 314.267 58.4C314.267 61.7093 313.474 64.588 311.887 67.036C310.3 69.484 308.124 71.388 305.359 72.748C302.594 74.0627 299.443 74.72 295.907 74.72C292.371 74.72 289.198 74.0627 286.387 72.748C283.622 71.388 281.446 69.484 279.859 67.036C278.272 64.588 277.479 61.7093 277.479 58.4ZM289.651 58.4C289.651 60.576 290.263 62.2533 291.487 63.432C292.756 64.6107 294.23 65.2 295.907 65.2C297.63 65.2 299.103 64.6107 300.327 63.432C301.551 62.2533 302.163 60.576 302.163 58.4C302.163 56.224 301.551 54.5467 300.327 53.368C299.103 52.144 297.63 51.532 295.907 51.532C294.23 51.532 292.756 52.144 291.487 53.368C290.263 54.5467 289.651 56.224 289.651 58.4Z" fill="#1E255C"/>
<path d="M340.349 55C340.349 53.368 340.055 52.1213 339.465 51.26C338.921 50.3533 337.901 49.9 336.405 49.9C335 49.9 333.867 50.3307 333.005 51.192C332.189 52.008 331.781 53.2773 331.781 55V74.04H319.949V42.76H331.781V47.384C332.688 45.752 333.912 44.46 335.453 43.508C337.04 42.5107 339.012 42.012 341.369 42.012C345.449 42.012 348.351 43.032 350.073 45.072C351.841 47.112 352.725 50.0133 352.725 53.776V74.04H340.349V55Z" fill="#1E255C"/>
<path d="M364.003 53.096L360.263 45.344C362.257 44.4827 364.547 43.6893 367.131 42.964C369.76 42.1933 372.571 41.808 375.563 41.808C378.419 41.808 380.98 42.216 383.247 43.032C385.559 43.848 387.372 45.0267 388.687 46.568C390.001 48.064 390.659 49.9227 390.659 52.144V74.04H379.507V69.688C378.6 71.32 377.217 72.5667 375.359 73.428C373.5 74.2893 371.437 74.72 369.171 74.72C367.131 74.72 365.249 74.3573 363.527 73.632C361.849 72.8613 360.489 71.7507 359.447 70.3C358.404 68.804 357.883 66.9907 357.883 64.86C357.883 61.868 358.925 59.5107 361.011 57.788C363.141 56.0653 366.179 55.204 370.123 55.204C371.981 55.204 373.727 55.3853 375.359 55.748C376.991 56.1107 378.373 56.5867 379.507 57.176V54.932C379.507 53.572 379.053 52.5067 378.147 51.736C377.285 50.92 375.88 50.512 373.931 50.512C372.616 50.512 371.256 50.6707 369.851 50.988C368.491 51.3053 367.267 51.668 366.179 52.076C365.136 52.484 364.411 52.824 364.003 53.096ZM369.715 64.248C369.715 65.2907 370.1 66.084 370.871 66.628C371.641 67.172 372.525 67.444 373.523 67.444C374.883 67.444 376.152 67.036 377.331 66.22C378.509 65.3587 379.212 64.0667 379.439 62.344C377.807 61.6187 376.016 61.256 374.067 61.256C372.525 61.256 371.415 61.528 370.735 62.072C370.055 62.5707 369.715 63.296 369.715 64.248Z" fill="#1E255C"/>
<path d="M397.844 21H409.676V74.04H397.844V21Z" fill="#1E255C"/>
<path d="M595.295 53.776V74.04H583.463V55C583.463 53.368 583.213 52.1213 582.715 51.26C582.216 50.3533 581.355 49.9 580.131 49.9C579.043 49.9 578.136 50.3307 577.411 51.192C576.685 52.008 576.323 53.2773 576.323 55V74.04H564.559V55C564.559 53.368 564.287 52.1213 563.743 51.26C563.244 50.3533 562.383 49.9 561.159 49.9C560.071 49.9 559.164 50.3307 558.439 51.192C557.713 52.008 557.351 53.2773 557.351 55V74.04H546.063V42.76H557.351V47.384C558.257 45.7067 559.459 44.392 560.955 43.44C562.451 42.488 564.309 42.012 566.531 42.012C569.069 42.012 571.041 42.4427 572.447 43.304C573.852 44.12 574.849 45.344 575.439 46.976C576.617 45.3893 578.045 44.1653 579.723 43.304C581.445 42.4427 583.372 42.012 585.503 42.012C589.265 42.012 591.827 43.032 593.187 45.072C594.592 47.112 595.295 50.0133 595.295 53.776Z" fill="#1E255C"/>
<path d="M601.077 58.4C601.077 55.0453 601.87 52.144 603.457 49.696C605.043 47.248 607.219 45.3667 609.985 44.052C612.795 42.692 615.969 42.012 619.505 42.012C623.041 42.012 626.191 42.692 628.957 44.052C631.722 45.3667 633.898 47.248 635.485 49.696C637.071 52.144 637.865 55.0453 637.865 58.4C637.865 61.7093 637.071 64.588 635.485 67.036C633.898 69.484 631.722 71.388 628.957 72.748C626.191 74.0627 623.041 74.72 619.505 74.72C615.969 74.72 612.795 74.0627 609.985 72.748C607.219 71.388 605.043 69.484 603.457 67.036C601.87 64.588 601.077 61.7093 601.077 58.4ZM613.249 58.4C613.249 60.576 613.861 62.2533 615.085 63.432C616.354 64.6107 617.827 65.2 619.505 65.2C621.227 65.2 622.701 64.6107 623.925 63.432C625.149 62.2533 625.761 60.576 625.761 58.4C625.761 56.224 625.149 54.5467 623.925 53.368C622.701 52.144 621.227 51.532 619.505 51.532C617.827 51.532 616.354 52.144 615.085 53.368C613.861 54.5467 613.249 56.224 613.249 58.4Z" fill="#1E255C"/>
<path d="M640.215 42.76H645.859V31.88H657.147V42.76H662.723V52.28H657.147V74.04H645.859V52.28H640.215V42.76Z" fill="#1E255C"/>
<path d="M665.907 31.404C665.907 29.5453 666.564 28.072 667.879 26.984C669.193 25.8507 670.757 25.284 672.571 25.284C674.429 25.284 675.993 25.8507 677.263 26.984C678.577 28.072 679.235 29.5453 679.235 31.404C679.235 33.2173 678.577 34.6907 677.263 35.824C675.993 36.912 674.429 37.456 672.571 37.456C670.757 37.456 669.193 36.912 667.879 35.824C666.564 34.6907 665.907 33.2173 665.907 31.404ZM666.859 42.76H678.283V74.04H666.859V42.76Z" fill="#1E255C"/>
<path d="M684.284 58.4C684.284 55.0453 685.077 52.144 686.664 49.696C688.25 47.248 690.426 45.3667 693.192 44.052C696.002 42.692 699.176 42.012 702.712 42.012C706.248 42.012 709.398 42.692 712.164 44.052C714.929 45.3667 717.105 47.248 718.692 49.696C720.278 52.144 721.072 55.0453 721.072 58.4C721.072 61.7093 720.278 64.588 718.692 67.036C717.105 69.484 714.929 71.388 712.164 72.748C709.398 74.0627 706.248 74.72 702.712 74.72C699.176 74.72 696.002 74.0627 693.192 72.748C690.426 71.388 688.25 69.484 686.664 67.036C685.077 64.588 684.284 61.7093 684.284 58.4ZM696.456 58.4C696.456 60.576 697.068 62.2533 698.292 63.432C699.561 64.6107 701.034 65.2 702.712 65.2C704.434 65.2 705.908 64.6107 707.132 63.432C708.356 62.2533 708.968 60.576 708.968 58.4C708.968 56.224 708.356 54.5467 707.132 53.368C705.908 52.144 704.434 51.532 702.712 51.532C701.034 51.532 699.561 52.144 698.292 53.368C697.068 54.5467 696.456 56.224 696.456 58.4Z" fill="#1E255C"/>
<path d="M747.154 55C747.154 53.368 746.859 52.1213 746.27 51.26C745.726 50.3533 744.706 49.9 743.21 49.9C741.805 49.9 740.671 50.3307 739.81 51.192C738.994 52.008 738.586 53.2773 738.586 55V74.04H726.754V42.76H738.586V47.384C739.493 45.752 740.717 44.46 742.258 43.508C743.845 42.5107 745.817 42.012 748.174 42.012C752.254 42.012 755.155 43.032 756.878 45.072C758.646 47.112 759.53 50.0133 759.53 53.776V74.04H747.154V55Z" fill="#1E255C"/>
<path d="M444.698 26.44H461.494C467.161 26.4853 471.445 27.8907 474.346 30.656C477.247 33.4213 478.449 37.32 477.95 42.352C477.633 45.752 476.522 48.6307 474.618 50.988C472.759 53.3453 470.311 55.1587 467.274 56.428C464.237 57.652 460.769 58.2867 456.87 58.332H452.246L449.526 74.04H436.538L444.698 26.44ZM460.27 37.048H455.918L454.082 47.656H457.958C459.862 47.656 461.494 47.2027 462.854 46.296C464.259 45.344 465.121 44.0293 465.438 42.352C465.71 40.72 465.37 39.428 464.418 38.476C463.466 37.524 462.083 37.048 460.27 37.048Z" fill="#7D83FF"/>
<path d="M500.354 54.796C499.901 54.2973 499.379 53.8667 498.79 53.504C498.246 53.1413 497.589 52.96 496.818 52.96C495.231 52.9147 493.826 53.5947 492.602 55C491.378 56.36 490.653 57.9467 490.426 59.76V59.692L487.91 74.04H476.554L481.926 42.76H493.35L492.534 47.384C493.713 45.7973 495.072 44.5053 496.614 43.508C498.2 42.4653 499.787 41.944 501.374 41.944C502.553 41.944 503.573 42.2387 504.434 42.828C505.295 43.372 506.021 44.0293 506.61 44.8L500.354 54.796Z" fill="#7D83FF"/>
<path d="M505.876 58.4C506.329 55.136 507.485 52.28 509.344 49.832C511.248 47.384 513.65 45.48 516.552 44.12C519.453 42.76 522.604 42.08 526.004 42.08C529.313 42.08 532.214 42.7827 534.708 44.188C537.246 45.548 539.15 47.452 540.42 49.9C541.734 52.348 542.188 55.1813 541.78 58.4C541.372 61.664 540.216 64.52 538.312 66.968C536.408 69.416 534.005 71.32 531.104 72.68C528.202 74.04 525.052 74.72 521.652 74.72C518.342 74.72 515.418 74.04 512.88 72.68C510.386 71.2747 508.482 69.348 507.168 66.9C505.898 64.452 505.468 61.6187 505.876 58.4ZM517.776 58.4C517.549 60.2133 517.844 61.8 518.66 63.16C519.521 64.4747 520.813 65.1547 522.536 65.2C524.304 65.2453 525.89 64.6107 527.296 63.296C528.746 61.936 529.608 60.304 529.88 58.4C530.106 56.5867 529.789 55.0227 528.928 53.708C528.112 52.348 526.842 51.6453 525.12 51.6C523.352 51.5547 521.742 52.212 520.292 53.572C518.886 54.8867 518.048 56.496 517.776 58.4Z" fill="#7D83FF"/>
<path fill-rule="evenodd" clip-rule="evenodd" d="M13.6575 92.25C14.2125 94.4065 16.1701 96 18.4999 96H90.9999C93.7614 96 95.9999 93.7614 95.9999 91V18.5C95.9999 16.1702 94.4065 14.2126 92.2499 13.6575V92.25H13.6575Z" fill="#7D83FF"/>
<path fill-rule="evenodd" clip-rule="evenodd" d="M6.90747 85.5C7.46252 87.6565 9.42015 89.25 11.7499 89.25H84.2499C87.0114 89.25 89.2499 87.0114 89.2499 84.25V11.75C89.2499 9.4202 87.6565 7.46258 85.4999 6.90752V85.5H6.90747Z" fill="#7D83FF"/>
<rect width="82.3742" height="82.3742" rx="5" fill="#7D83FF"/>
<path fill-rule="evenodd" clip-rule="evenodd" d="M50.5628 60.0461C53.0929 60.0461 55.1439 57.9732 55.1439 55.4161C55.1439 52.859 53.0929 50.7861 50.5628 50.7861C48.0327 50.7861 45.9817 52.859 45.9817 55.4161C45.9817 57.9732 48.0327 60.0461 50.5628 60.0461ZM50.5628 65.0323C55.8176 65.0323 60.0774 60.727 60.0774 55.4161C60.0774 50.1053 55.8176 45.8 50.5628 45.8C45.308 45.8 41.0482 50.1053 41.0482 55.4161C41.0482 60.727 45.308 65.0323 50.5628 65.0323Z" fill="#1E255C"/>
<path fill-rule="evenodd" clip-rule="evenodd" d="M57.6106 57.9092C56.2483 57.9092 55.1439 56.793 55.1439 55.4161V26.9239C55.1439 25.547 56.2483 24.4308 57.6106 24.4308C58.973 24.4308 60.0774 25.547 60.0774 26.9239V55.4161C60.0774 56.793 58.973 57.9092 57.6106 57.9092Z" fill="#1E255C"/>
<path fill-rule="evenodd" clip-rule="evenodd" d="M28.7145 53.6354C31.2446 53.6354 33.2956 51.5624 33.2956 49.0054C33.2956 46.4483 31.2446 44.3754 28.7145 44.3754C26.1845 44.3754 24.1334 46.4483 24.1334 49.0054C24.1334 51.5624 26.1845 53.6354 28.7145 53.6354ZM28.7145 58.6215C33.9693 58.6215 38.2291 54.3162 38.2291 49.0054C38.2291 43.6945 33.9693 39.3892 28.7145 39.3892C23.4598 39.3892 19.2 43.6945 19.2 49.0054C19.2 54.3162 23.4598 58.6215 28.7145 58.6215Z" fill="#1E255C"/>
<path fill-rule="evenodd" clip-rule="evenodd" d="M35.7624 51.4984C34.4 51.4984 33.2956 50.3822 33.2956 49.0054V20.5131C33.2956 19.1362 34.4 18.02 35.7624 18.02C37.1247 18.02 38.2291 19.1362 38.2291 20.5131V49.0054C38.2291 50.3822 37.1247 51.4984 35.7624 51.4984Z" fill="#1E255C"/>
<path fill-rule="evenodd" clip-rule="evenodd" d="M33.7587 19.8451C34.0144 18.4927 35.2879 17.6876 36.603 18.0468L57.9174 23.869C59.2325 24.2282 60.0914 25.6158 59.8356 26.9682C59.5799 28.3206 58.3064 29.1257 56.9913 28.7665L35.6769 22.9443C34.3618 22.5851 33.5029 21.1975 33.7587 19.8451Z" fill="#1E255C"/>
<path fill-rule="evenodd" clip-rule="evenodd" d="M33.7587 27.6805C34.0144 26.3281 35.2879 25.523 36.603 25.8822L57.9174 31.7043C59.2325 32.0636 60.0914 33.4511 59.8356 34.8036C59.5799 36.156 58.3064 36.9611 56.9913 36.6018L35.6769 30.7797C34.3618 30.4205 33.5029 29.0329 33.7587 27.6805Z" fill="#1E255C"/>
</svg>
