<svg width="623" height="296" viewBox="0 0 623 296" fill="none" xmlns="http://www.w3.org/2000/svg">
<path d="M0 246.44H17.612C24.14 246.44 28.968 247.845 32.096 250.656C35.2693 253.467 36.856 257.365 36.856 262.352C36.856 267.293 35.2693 271.192 32.096 274.048C28.968 276.904 24.14 278.332 17.612 278.332H13.192V294.04H0V246.44ZM17.612 257.116H13.192V267.656H17.612C19.7427 267.656 21.352 267.203 22.44 266.296C23.5733 265.344 24.14 264.029 24.14 262.352C24.14 258.861 21.964 257.116 17.612 257.116Z" fill="#F9FAFB"/>
<path d="M57.6815 294.72C51.8335 294.72 47.2549 293.269 43.9455 290.368C40.6362 287.421 38.9815 283.432 38.9815 278.4C38.9815 273.277 40.5909 269.288 43.8095 266.432C47.0735 263.531 51.5615 262.08 57.2735 262.08C62.9402 262.08 67.2695 263.44 70.2615 266.16C73.2535 268.88 74.7495 272.779 74.7495 277.856C74.7495 278.4 74.7495 278.944 74.7495 279.488C74.7949 279.987 74.7722 280.44 74.6815 280.848H51.0175C51.6069 284.656 53.6922 286.56 57.2735 286.56C60.6282 286.56 62.9855 285.381 64.3455 283.024L75.0895 285.064C71.6895 291.501 65.8869 294.72 57.6815 294.72ZM57.0015 269.56C53.7829 269.56 51.8335 271.305 51.1535 274.796H62.1695C62.0335 273.164 61.5122 271.895 60.6055 270.988C59.6989 270.036 58.4975 269.56 57.0015 269.56Z" fill="#F9FAFB"/>
<path d="M101.189 274.864C100.736 274.32 100.192 273.867 99.5573 273.504C98.9226 273.141 98.152 272.96 97.2453 272.96C95.8853 272.96 94.7066 273.527 93.7093 274.66C92.7573 275.748 92.2813 277.425 92.2813 279.692V294.04H80.7213V262.76H92.2813V266.772C93.2786 265.276 94.5026 264.097 95.9533 263.236C97.4493 262.375 98.9906 261.944 100.577 261.944C101.711 261.944 102.799 262.216 103.841 262.76C104.929 263.259 105.7 263.893 106.153 264.664L101.189 274.864Z" fill="#F9FAFB"/>
<path d="M111.909 282.14C114.72 284.316 117.032 285.699 118.845 286.288C120.658 286.877 121.973 287.172 122.789 287.172C124.466 287.172 125.305 286.515 125.305 285.2C125.305 284.656 125.124 284.203 124.761 283.84C124.444 283.432 123.809 283.024 122.857 282.616C121.95 282.208 120.59 281.709 118.777 281.12C117.281 280.621 115.853 279.987 114.493 279.216C113.178 278.445 112.09 277.425 111.229 276.156C110.368 274.841 109.937 273.164 109.937 271.124C109.937 268.223 111.07 266.001 113.337 264.46C115.649 262.873 118.596 262.08 122.177 262.08C124.942 262.08 127.458 262.488 129.725 263.304C131.992 264.12 134.145 265.117 136.185 266.296L132.717 274.184C131.312 272.915 129.68 271.872 127.821 271.056C126.008 270.24 124.444 269.832 123.129 269.832C122.268 269.832 121.656 269.991 121.293 270.308C120.93 270.625 120.749 271.011 120.749 271.464C120.749 272.461 121.361 273.164 122.585 273.572C123.809 273.98 125.668 274.66 128.161 275.612C129.702 276.201 131.13 276.859 132.445 277.584C133.805 278.309 134.893 279.284 135.709 280.508C136.57 281.687 137.001 283.251 137.001 285.2C137.001 288.736 135.958 291.343 133.873 293.02C131.788 294.697 128.796 295.536 124.897 295.536C121.452 295.536 118.324 295.037 115.513 294.04C112.748 293.088 110.118 291.819 107.625 290.232L111.909 282.14Z" fill="#F9FAFB"/>
<path d="M140.583 278.4C140.583 275.045 141.376 272.144 142.963 269.696C144.55 267.248 146.726 265.367 149.491 264.052C152.302 262.692 155.475 262.012 159.011 262.012C162.547 262.012 165.698 262.692 168.463 264.052C171.228 265.367 173.404 267.248 174.991 269.696C176.578 272.144 177.371 275.045 177.371 278.4C177.371 281.709 176.578 284.588 174.991 287.036C173.404 289.484 171.228 291.388 168.463 292.748C165.698 294.063 162.547 294.72 159.011 294.72C155.475 294.72 152.302 294.063 149.491 292.748C146.726 291.388 144.55 289.484 142.963 287.036C141.376 284.588 140.583 281.709 140.583 278.4ZM152.755 278.4C152.755 280.576 153.367 282.253 154.591 283.432C155.86 284.611 157.334 285.2 159.011 285.2C160.734 285.2 162.207 284.611 163.431 283.432C164.655 282.253 165.267 280.576 165.267 278.4C165.267 276.224 164.655 274.547 163.431 273.368C162.207 272.144 160.734 271.532 159.011 271.532C157.334 271.532 155.86 272.144 154.591 273.368C153.367 274.547 152.755 276.224 152.755 278.4Z" fill="#F9FAFB"/>
<path d="M203.453 275C203.453 273.368 203.159 272.121 202.569 271.26C202.025 270.353 201.005 269.9 199.509 269.9C198.104 269.9 196.971 270.331 196.109 271.192C195.293 272.008 194.885 273.277 194.885 275V294.04H183.053V262.76H194.885V267.384C195.792 265.752 197.016 264.46 198.557 263.508C200.144 262.511 202.116 262.012 204.473 262.012C208.553 262.012 211.455 263.032 213.177 265.072C214.945 267.112 215.829 270.013 215.829 273.776V294.04H203.453V275Z" fill="#F9FAFB"/>
<path d="M227.107 273.096L223.367 265.344C225.361 264.483 227.651 263.689 230.235 262.964C232.864 262.193 235.675 261.808 238.667 261.808C241.523 261.808 244.084 262.216 246.351 263.032C248.663 263.848 250.476 265.027 251.791 266.568C253.105 268.064 253.763 269.923 253.763 272.144V294.04H242.611V289.688C241.704 291.32 240.321 292.567 238.463 293.428C236.604 294.289 234.541 294.72 232.275 294.72C230.235 294.72 228.353 294.357 226.631 293.632C224.953 292.861 223.593 291.751 222.551 290.3C221.508 288.804 220.987 286.991 220.987 284.86C220.987 281.868 222.029 279.511 224.115 277.788C226.245 276.065 229.283 275.204 233.227 275.204C235.085 275.204 236.831 275.385 238.463 275.748C240.095 276.111 241.477 276.587 242.611 277.176V274.932C242.611 273.572 242.157 272.507 241.251 271.736C240.389 270.92 238.984 270.512 237.035 270.512C235.72 270.512 234.36 270.671 232.955 270.988C231.595 271.305 230.371 271.668 229.283 272.076C228.24 272.484 227.515 272.824 227.107 273.096ZM232.819 284.248C232.819 285.291 233.204 286.084 233.975 286.628C234.745 287.172 235.629 287.444 236.627 287.444C237.987 287.444 239.256 287.036 240.435 286.22C241.613 285.359 242.316 284.067 242.543 282.344C240.911 281.619 239.12 281.256 237.171 281.256C235.629 281.256 234.519 281.528 233.839 282.072C233.159 282.571 232.819 283.296 232.819 284.248Z" fill="#F9FAFB"/>
<path d="M260.948 241H272.78V294.04H260.948V241Z" fill="#F9FAFB"/>
<path d="M458.399 273.776V294.04H446.567V275C446.567 273.368 446.317 272.121 445.819 271.26C445.32 270.353 444.459 269.9 443.235 269.9C442.147 269.9 441.24 270.331 440.515 271.192C439.789 272.008 439.427 273.277 439.427 275V294.04H427.663V275C427.663 273.368 427.391 272.121 426.847 271.26C426.348 270.353 425.487 269.9 424.263 269.9C423.175 269.9 422.268 270.331 421.543 271.192C420.817 272.008 420.455 273.277 420.455 275V294.04H409.167V262.76H420.455V267.384C421.361 265.707 422.563 264.392 424.059 263.44C425.555 262.488 427.413 262.012 429.635 262.012C432.173 262.012 434.145 262.443 435.551 263.304C436.956 264.12 437.953 265.344 438.543 266.976C439.721 265.389 441.149 264.165 442.827 263.304C444.549 262.443 446.476 262.012 448.607 262.012C452.369 262.012 454.931 263.032 456.291 265.072C457.696 267.112 458.399 270.013 458.399 273.776Z" fill="#F9FAFB"/>
<path d="M464.181 278.4C464.181 275.045 464.974 272.144 466.561 269.696C468.147 267.248 470.323 265.367 473.089 264.052C475.899 262.692 479.073 262.012 482.609 262.012C486.145 262.012 489.295 262.692 492.061 264.052C494.826 265.367 497.002 267.248 498.589 269.696C500.175 272.144 500.969 275.045 500.969 278.4C500.969 281.709 500.175 284.588 498.589 287.036C497.002 289.484 494.826 291.388 492.061 292.748C489.295 294.063 486.145 294.72 482.609 294.72C479.073 294.72 475.899 294.063 473.089 292.748C470.323 291.388 468.147 289.484 466.561 287.036C464.974 284.588 464.181 281.709 464.181 278.4ZM476.353 278.4C476.353 280.576 476.965 282.253 478.189 283.432C479.458 284.611 480.931 285.2 482.609 285.2C484.331 285.2 485.805 284.611 487.029 283.432C488.253 282.253 488.865 280.576 488.865 278.4C488.865 276.224 488.253 274.547 487.029 273.368C485.805 272.144 484.331 271.532 482.609 271.532C480.931 271.532 479.458 272.144 478.189 273.368C476.965 274.547 476.353 276.224 476.353 278.4Z" fill="#F9FAFB"/>
<path d="M503.319 262.76H508.963V251.88H520.251V262.76H525.827V272.28H520.251V294.04H508.963V272.28H503.319V262.76Z" fill="#F9FAFB"/>
<path d="M529.011 251.404C529.011 249.545 529.668 248.072 530.983 246.984C532.297 245.851 533.861 245.284 535.675 245.284C537.533 245.284 539.097 245.851 540.367 246.984C541.681 248.072 542.339 249.545 542.339 251.404C542.339 253.217 541.681 254.691 540.367 255.824C539.097 256.912 537.533 257.456 535.675 257.456C533.861 257.456 532.297 256.912 530.983 255.824C529.668 254.691 529.011 253.217 529.011 251.404ZM529.963 262.76H541.387V294.04H529.963V262.76Z" fill="#F9FAFB"/>
<path d="M547.388 278.4C547.388 275.045 548.181 272.144 549.768 269.696C551.354 267.248 553.53 265.367 556.296 264.052C559.106 262.692 562.28 262.012 565.816 262.012C569.352 262.012 572.502 262.692 575.268 264.052C578.033 265.367 580.209 267.248 581.796 269.696C583.382 272.144 584.176 275.045 584.176 278.4C584.176 281.709 583.382 284.588 581.796 287.036C580.209 289.484 578.033 291.388 575.268 292.748C572.502 294.063 569.352 294.72 565.816 294.72C562.28 294.72 559.106 294.063 556.296 292.748C553.53 291.388 551.354 289.484 549.768 287.036C548.181 284.588 547.388 281.709 547.388 278.4ZM559.56 278.4C559.56 280.576 560.172 282.253 561.396 283.432C562.665 284.611 564.138 285.2 565.816 285.2C567.538 285.2 569.012 284.611 570.236 283.432C571.46 282.253 572.072 280.576 572.072 278.4C572.072 276.224 571.46 274.547 570.236 273.368C569.012 272.144 567.538 271.532 565.816 271.532C564.138 271.532 562.665 272.144 561.396 273.368C560.172 274.547 559.56 276.224 559.56 278.4Z" fill="#F9FAFB"/>
<path d="M610.258 275C610.258 273.368 609.963 272.121 609.374 271.26C608.83 270.353 607.81 269.9 606.314 269.9C604.909 269.9 603.775 270.331 602.914 271.192C602.098 272.008 601.69 273.277 601.69 275V294.04H589.858V262.76H601.69V267.384C602.597 265.752 603.821 264.46 605.362 263.508C606.949 262.511 608.921 262.012 611.278 262.012C615.358 262.012 618.259 263.032 619.982 265.072C621.75 267.112 622.634 270.013 622.634 273.776V294.04H610.258V275Z" fill="#F9FAFB"/>
<path d="M307.802 246.44H324.598C330.265 246.485 334.549 247.891 337.45 250.656C340.351 253.421 341.553 257.32 341.054 262.352C340.737 265.752 339.626 268.631 337.722 270.988C335.863 273.345 333.415 275.159 330.378 276.428C327.341 277.652 323.873 278.287 319.974 278.332H315.35L312.63 294.04H299.642L307.802 246.44ZM323.374 257.048H319.022L317.186 267.656H321.062C322.966 267.656 324.598 267.203 325.958 266.296C327.363 265.344 328.225 264.029 328.542 262.352C328.814 260.72 328.474 259.428 327.522 258.476C326.57 257.524 325.187 257.048 323.374 257.048Z" fill="#7D83FF"/>
<path d="M363.458 274.796C363.005 274.297 362.483 273.867 361.894 273.504C361.35 273.141 360.693 272.96 359.922 272.96C358.335 272.915 356.93 273.595 355.706 275C354.482 276.36 353.757 277.947 353.53 279.76V279.692L351.014 294.04H339.658L345.03 262.76H356.454L355.638 267.384C356.817 265.797 358.177 264.505 359.718 263.508C361.305 262.465 362.891 261.944 364.478 261.944C365.657 261.944 366.677 262.239 367.538 262.828C368.399 263.372 369.125 264.029 369.714 264.8L363.458 274.796Z" fill="#7D83FF"/>
<path d="M368.98 278.4C369.433 275.136 370.589 272.28 372.448 269.832C374.352 267.384 376.754 265.48 379.656 264.12C382.557 262.76 385.708 262.08 389.108 262.08C392.417 262.08 395.318 262.783 397.812 264.188C400.35 265.548 402.254 267.452 403.524 269.9C404.838 272.348 405.292 275.181 404.884 278.4C404.476 281.664 403.32 284.52 401.416 286.968C399.512 289.416 397.109 291.32 394.208 292.68C391.306 294.04 388.156 294.72 384.756 294.72C381.446 294.72 378.522 294.04 375.984 292.68C373.49 291.275 371.586 289.348 370.272 286.9C369.002 284.452 368.572 281.619 368.98 278.4ZM380.88 278.4C380.653 280.213 380.948 281.8 381.764 283.16C382.625 284.475 383.917 285.155 385.64 285.2C387.408 285.245 388.994 284.611 390.4 283.296C391.85 281.936 392.712 280.304 392.984 278.4C393.21 276.587 392.893 275.023 392.032 273.708C391.216 272.348 389.946 271.645 388.224 271.6C386.456 271.555 384.846 272.212 383.396 273.572C381.99 274.887 381.152 276.496 380.88 278.4Z" fill="#7D83FF"/>
<path fill-rule="evenodd" clip-rule="evenodd" d="M23.4844 160.477V162C23.4844 164.761 25.7229 167 28.4844 167H162C164.761 167 167 164.761 167 162V28.4844C167 25.723 164.761 23.4844 162 23.4844H160.477V160.477H23.4844Z" fill="#7D83FF"/>
<path fill-rule="evenodd" clip-rule="evenodd" d="M11.7422 148.734V150.258C11.7422 153.019 13.9808 155.258 16.7422 155.258H150.258C153.019 155.258 155.258 153.019 155.258 150.258V16.7422C155.258 13.9808 153.019 11.7422 150.258 11.7422H148.734V148.734H11.7422Z" fill="#7D83FF"/>
<path fill-rule="evenodd" clip-rule="evenodd" d="M5 0C2.23858 0 0 2.23858 0 5V138.297C0 141.058 2.23858 143.297 5 143.297H138.297C141.058 143.297 143.297 141.058 143.297 138.297V5C143.297 2.23858 141.058 0 138.297 0H5ZM66.5028 45.7969V41.1263L95.9275 49.1638V53.8344L66.5028 45.7969ZM66.5028 54.7566V85.2489C66.5028 94.4876 59.0925 101.977 49.9514 101.977C40.8103 101.977 33.4 94.4876 33.4 85.2489C33.4 76.0102 40.8103 68.5208 49.9514 68.5208C52.8405 68.5208 55.5566 69.2689 57.9206 70.5839V35.6842C57.9206 33.5634 59.4268 31.7982 61.417 31.4216C62.1154 31.2035 62.8905 31.1799 63.6741 31.394L100.752 41.522C102.316 41.9493 103.509 43.2127 103.966 44.7211C104.312 45.3468 104.51 46.0682 104.51 46.8363V96.4009C104.51 105.64 97.0994 113.129 87.9583 113.129C78.8172 113.129 71.4069 105.64 71.4069 96.4009C71.4069 87.1623 78.8172 79.6729 87.9583 79.6729C90.8474 79.6729 93.5635 80.421 95.9275 81.736V62.7941L66.5028 54.7566ZM57.9206 85.2489C57.9206 89.6971 54.3527 93.3031 49.9514 93.3031C45.5502 93.3031 41.9822 89.6971 41.9822 85.2489C41.9822 80.8007 45.5502 77.1946 49.9514 77.1946C54.3527 77.1946 57.9206 80.8007 57.9206 85.2489ZM95.9275 96.4009C95.9275 100.849 92.3596 104.455 87.9583 104.455C83.5571 104.455 79.9891 100.849 79.9891 96.4009C79.9891 91.9527 83.5571 88.3467 87.9583 88.3467C92.3596 88.3467 95.9275 91.9527 95.9275 96.4009Z" fill="#7D83FF"/>
</svg>
