<svg width="302" height="344" viewBox="0 0 302 344" fill="none" xmlns="http://www.w3.org/2000/svg">
<path fill-rule="evenodd" clip-rule="evenodd" d="M231.827 307.199C250.487 307.199 265.614 292.102 265.614 273.478C265.614 254.854 250.487 239.756 231.827 239.756C213.167 239.756 198.04 254.854 198.04 273.478C198.04 292.102 213.167 307.199 231.827 307.199ZM231.827 343.515C270.582 343.515 302 312.158 302 273.478C302 234.797 270.582 203.441 231.827 203.441C193.071 203.441 161.653 234.797 161.653 273.478C161.653 312.158 193.071 343.515 231.827 343.515Z" fill="#7D83FF"/>
<path fill-rule="evenodd" clip-rule="evenodd" d="M283.807 291.636C273.759 291.636 265.614 283.506 265.614 273.478V65.9603C265.614 55.932 273.759 47.8025 283.807 47.8025C293.855 47.8025 302 55.932 302 65.9603V273.478C302 283.506 293.855 291.636 283.807 291.636Z" fill="#7D83FF"/>
<path fill-rule="evenodd" clip-rule="evenodd" d="M70.688 260.508C89.3482 260.508 104.475 245.41 104.475 226.786C104.475 208.162 89.3482 193.065 70.688 193.065C52.0279 193.065 36.9009 208.162 36.9009 226.786C36.9009 245.41 52.0279 260.508 70.688 260.508ZM70.688 296.823C109.444 296.823 140.861 265.467 140.861 226.786C140.861 188.106 109.444 156.749 70.688 156.749C31.9324 156.749 0.514771 188.106 0.514771 226.786C0.514771 265.467 31.9324 296.823 70.688 296.823Z" fill="#7D83FF"/>
<path fill-rule="evenodd" clip-rule="evenodd" d="M122.668 244.944C112.62 244.944 104.475 236.815 104.475 226.786V19.2688C104.475 9.24057 112.62 1.11104 122.668 1.11104C132.716 1.11104 140.861 9.24057 140.861 19.2688V226.786C140.861 236.815 132.716 244.944 122.668 244.944Z" fill="#7D83FF"/>
<path fill-rule="evenodd" clip-rule="evenodd" d="M107.89 14.4037C109.776 4.55368 119.168 -1.31025 128.868 1.30621L286.069 43.7105C295.769 46.327 302.103 56.4331 300.217 66.2831C298.331 76.133 288.938 81.997 279.239 79.3805L122.038 36.9762C112.338 34.3597 106.004 24.2537 107.89 14.4037Z" fill="#7D83FF"/>
<path fill-rule="evenodd" clip-rule="evenodd" d="M107.89 71.471C109.776 61.621 119.168 55.7571 128.868 58.3735L286.069 100.778C295.769 103.394 302.103 113.5 300.217 123.35C298.331 133.2 288.938 139.064 279.239 136.448L122.038 94.0435C112.338 91.427 106.004 81.321 107.89 71.471Z" fill="#7D83FF"/>
</svg>
