<svg width="87" height="87" viewBox="0 0 87 87" fill="none" xmlns="http://www.w3.org/2000/svg">
<path fill-rule="evenodd" clip-rule="evenodd" d="M12.2344 83.6016V84.1936C12.2344 85.7435 13.4909 87 15.0408 87H84.1936C85.7435 87 87 85.7435 87 84.1936V15.0408C87 13.4909 85.7435 12.2344 84.1936 12.2344H83.6016V83.6016H12.2344Z" fill="#7D83FF"/>
<path fill-rule="evenodd" clip-rule="evenodd" d="M6.11719 77.4844V78.0764C6.11719 79.6263 7.37368 80.8828 8.92364 80.8828H78.0764C79.6263 80.8828 80.8828 79.6263 80.8828 78.0764V8.92364C80.8828 7.37368 79.6263 6.11719 78.0764 6.11719H77.4844V77.4844H6.11719Z" fill="#7D83FF"/>
<path d="M0 2.80645C0 1.25649 1.25649 0 2.80645 0H71.8452C73.3951 0 74.6516 1.25649 74.6516 2.80645V71.8452C74.6516 73.3951 73.3951 74.6516 71.8452 74.6516H2.80645C1.25649 74.6516 0 73.3951 0 71.8452V2.80645Z" fill="#7D83FF"/>
<path d="M27.5164 31.1V22.8L45.8164 19.3V55H36.4664V29L27.5164 31.1Z" fill="#1E255C"/>
</svg>
