<svg width="87" height="87" viewBox="0 0 87 87" fill="none" xmlns="http://www.w3.org/2000/svg">
<path fill-rule="evenodd" clip-rule="evenodd" d="M12.2344 83.6016V84.1935C12.2344 85.7435 13.4909 87 15.0408 87H84.1935C85.7435 87 87 85.7435 87 84.1935V15.0408C87 13.4909 85.7435 12.2344 84.1935 12.2344H83.6016V83.6016H12.2344Z" fill="#7D83FF"/>
<path fill-rule="evenodd" clip-rule="evenodd" d="M6.11719 77.4844V78.0764C6.11719 79.6263 7.37368 80.8828 8.92364 80.8828H78.0764C79.6263 80.8828 80.8828 79.6263 80.8828 78.0764V8.92364C80.8828 7.37368 79.6263 6.11719 78.0764 6.11719H77.4844V77.4844H6.11719Z" fill="#7D83FF"/>
<path d="M0 2.80645C0 1.25649 1.25649 0 2.80645 0H71.8452C73.3951 0 74.6516 1.25649 74.6516 2.80645V71.8452C74.6516 73.3951 73.3951 74.6516 71.8452 74.6516H2.80645C1.25649 74.6516 0 73.3951 0 71.8452V2.80645Z" fill="#7D83FF"/>
<path d="M21.459 55L36.759 39.3C38.2257 37.7 39.3923 36.3333 40.259 35.2C41.1257 34.0333 41.559 32.7667 41.559 31.4C41.559 30.4 41.2257 29.5 40.559 28.7C39.8923 27.9 38.8257 27.5 37.359 27.5C35.9257 27.5 34.759 28.0333 33.859 29.1C32.9923 30.1667 32.559 31.5333 32.559 33.2H23.059C23.059 30.7 23.5923 28.4 24.659 26.3C25.759 24.1667 27.3923 22.4667 29.559 21.2C31.7257 19.9 34.4257 19.25 37.659 19.25C40.659 19.25 43.1923 19.8167 45.259 20.95C47.3257 22.0833 48.8923 23.5333 49.959 25.3C51.059 27.0333 51.609 28.8333 51.609 30.7C51.609 32.6 51.1423 34.3167 50.209 35.85C49.2757 37.3833 48.0257 38.7833 46.459 40.05L39.259 46.1H52.659V55H21.459Z" fill="#1E255C"/>
</svg>
