<svg width="387" height="387" viewBox="0 0 387 387" fill="none" xmlns="http://www.w3.org/2000/svg">
<path fill-rule="evenodd" clip-rule="evenodd" d="M54.4219 371.883V382C54.4219 384.761 56.6605 387 59.4219 387H382C384.761 387 387 384.761 387 382V59.4219C387 56.6605 384.761 54.4219 382 54.4219H371.883V371.883H54.4219Z" fill="white"/>
<path fill-rule="evenodd" clip-rule="evenodd" d="M27.2109 344.672V354.789C27.2109 357.55 29.4495 359.789 32.2109 359.789H354.789C357.55 359.789 359.789 357.55 359.789 354.789V32.2109C359.789 29.4495 357.55 27.2109 354.789 27.2109H344.672V344.672H27.2109Z" fill="white"/>
<rect width="332" height="332" rx="5" fill="white"/>
<path d="M165.5 69C111.678 69 68 112.615 68 166.359C68 220.103 111.678 263.719 165.5 263.719C219.322 263.719 263 220.103 263 166.359C263 112.615 219.322 69 165.5 69ZM205.09 212.252C203.439 212.252 202.416 211.741 200.883 210.838C176.351 196.078 147.808 195.449 119.62 201.22C118.087 201.613 116.082 202.241 114.942 202.241C111.128 202.241 108.73 199.218 108.73 196.038C108.73 191.995 111.128 190.071 114.077 189.443C146.275 182.337 179.181 182.965 207.252 199.729C209.65 201.26 211.066 202.634 211.066 206.206C211.066 209.779 208.274 212.252 205.09 212.252ZM215.665 186.499C213.621 186.499 212.245 185.596 210.83 184.85C186.258 170.324 149.617 164.475 117.025 173.308C115.138 173.818 114.116 174.329 112.347 174.329C108.14 174.329 104.72 170.913 104.72 166.713C104.72 162.512 106.764 159.725 110.814 158.586C121.743 155.524 132.908 153.247 149.263 153.247C174.778 153.247 199.428 159.568 218.85 171.11C222.034 172.994 223.292 175.428 223.292 178.843C223.253 183.083 219.951 186.499 215.665 186.499ZM227.853 156.584C225.808 156.584 224.55 156.074 222.781 155.053C194.789 138.369 144.742 134.364 112.347 143.394C110.931 143.786 109.162 144.414 107.275 144.414C102.086 144.414 98.1149 140.371 98.1149 135.149C98.1149 129.81 101.417 126.788 104.956 125.767C118.794 121.723 134.284 119.8 151.15 119.8C179.85 119.8 209.925 125.767 231.902 138.565C234.969 140.331 236.974 142.765 236.974 147.437C236.974 152.776 232.649 156.584 227.853 156.584Z" fill="#64D15F"/>
</svg>
