<svg width="1500" height="800" viewBox="0 0 1500 800" fill="none" xmlns="http://www.w3.org/2000/svg">
<path fill-rule="evenodd" clip-rule="evenodd" d="M1258.31 598.516C1276.97 598.516 1292.1 583.419 1292.1 564.795C1292.1 546.171 1276.97 531.073 1258.31 531.073C1239.65 531.073 1224.52 546.171 1224.52 564.795C1224.52 583.419 1239.65 598.516 1258.31 598.516ZM1258.31 634.832C1297.07 634.832 1328.49 603.475 1328.49 564.795C1328.49 526.114 1297.07 494.757 1258.31 494.757C1219.56 494.757 1188.14 526.114 1188.14 564.795C1188.14 603.475 1219.56 634.832 1258.31 634.832Z" fill="#7D83FF"/>
<path fill-rule="evenodd" clip-rule="evenodd" d="M1310.29 582.952C1300.24 582.952 1292.1 574.823 1292.1 564.795V357.277C1292.1 347.249 1300.24 339.119 1310.29 339.119C1320.34 339.119 1328.49 347.249 1328.49 357.277V564.795C1328.49 574.823 1320.34 582.952 1310.29 582.952Z" fill="#7D83FF"/>
<path fill-rule="evenodd" clip-rule="evenodd" d="M1097.17 551.825C1115.83 551.825 1130.96 536.727 1130.96 518.103C1130.96 499.479 1115.83 484.382 1097.17 484.382C1078.51 484.382 1063.39 499.479 1063.39 518.103C1063.39 536.727 1078.51 551.825 1097.17 551.825ZM1097.17 588.14C1135.93 588.14 1167.35 556.784 1167.35 518.103C1167.35 479.423 1135.93 448.066 1097.17 448.066C1058.42 448.066 1027 479.423 1027 518.103C1027 556.784 1058.42 588.14 1097.17 588.14Z" fill="#7D83FF"/>
<path fill-rule="evenodd" clip-rule="evenodd" d="M1149.15 536.261C1139.11 536.261 1130.96 528.131 1130.96 518.103V310.586C1130.96 300.557 1139.11 292.428 1149.15 292.428C1159.2 292.428 1167.35 300.557 1167.35 310.586V518.103C1167.35 528.131 1159.2 536.261 1149.15 536.261Z" fill="#7D83FF"/>
<path fill-rule="evenodd" clip-rule="evenodd" d="M1134.38 305.721C1136.26 295.871 1145.65 290.007 1155.35 292.623L1312.55 335.027C1322.25 337.644 1328.59 347.75 1326.7 357.6C1324.82 367.45 1315.42 373.314 1305.72 370.697L1148.52 328.293C1138.82 325.677 1132.49 315.571 1134.38 305.721Z" fill="#7D83FF"/>
<path fill-rule="evenodd" clip-rule="evenodd" d="M1134.38 362.788C1136.26 352.938 1145.65 347.074 1155.35 349.69L1312.55 392.095C1322.25 394.711 1328.59 404.817 1326.7 414.667C1324.82 424.517 1315.42 430.381 1305.72 427.765L1148.52 385.36C1138.82 382.744 1132.49 372.638 1134.38 362.788Z" fill="#7D83FF"/>
</svg>
