<svg width="387" height="387" viewBox="0 0 387 387" fill="none" xmlns="http://www.w3.org/2000/svg">
<path fill-rule="evenodd" clip-rule="evenodd" d="M54.4219 371.883V382C54.4219 384.761 56.6605 387 59.4219 387H382C384.761 387 387 384.761 387 382V59.4219C387 56.6605 384.761 54.4219 382 54.4219H371.883V371.883H54.4219Z" fill="#7D83FF" fill-opacity="0.7"/>
<path fill-rule="evenodd" clip-rule="evenodd" d="M27.2109 344.672V354.789C27.2109 357.55 29.4495 359.789 32.2109 359.789H354.789C357.55 359.789 359.789 357.55 359.789 354.789V32.2109C359.789 29.4495 357.55 27.2109 354.789 27.2109H344.672V344.672H27.2109Z" fill="#7D83FF" fill-opacity="0.7"/>
<rect width="332" height="332" rx="5" fill="#7D83FF" fill-opacity="0.7"/>
<path d="M268.732 114.587C266.257 105.303 258.964 97.9906 249.704 95.5092C232.919 91 165.615 91 165.615 91C165.615 91 98.311 91 81.526 95.5092C72.2659 97.991 64.9728 105.303 62.4974 114.587C58 131.416 58 166.527 58 166.527C58 166.527 58 201.639 62.4974 218.467C64.9728 227.752 72.2659 234.759 81.526 237.241C98.311 241.75 165.615 241.75 165.615 241.75C165.615 241.75 232.919 241.75 249.704 237.241C258.964 234.759 266.257 227.752 268.732 218.467C273.23 201.639 273.23 166.527 273.23 166.527C273.23 166.527 273.23 131.416 268.732 114.587ZM143.603 198.406V134.649L199.856 166.528L143.603 198.406Z" fill="#1E255C" fill-opacity="0.7"/>
</svg>
